<?xml version="1.0" encoding="UTF-8"?>
<!DOCTYPE svg PUBLIC "-//W3C//DTD SVG 1.1//EN" "http://www.w3.org/Graphics/SVG/1.1/DTD/svg11.dtd">
<svg xmlns="http://www.w3.org/2000/svg" version="1.1" width="1024px" height="1024px" style="shape-rendering:geometricPrecision; text-rendering:geometricPrecision; image-rendering:optimizeQuality; fill-rule:evenodd; clip-rule:evenodd" xmlns:xlink="http://www.w3.org/1999/xlink">
<g><path style="opacity:1" fill="#f8f8f8" d="M -0.5,-0.5 C 340.833,-0.5 682.167,-0.5 1023.5,-0.5C 1023.5,340.833 1023.5,682.167 1023.5,1023.5C 682.167,1023.5 340.833,1023.5 -0.5,1023.5C -0.5,682.167 -0.5,340.833 -0.5,-0.5 Z"/></g>
<g><path style="opacity:1" fill="#181918" d="M 341.5,122.5 C 343.827,164.334 345.827,206.334 347.5,248.5C 344.5,248.5 341.5,248.5 338.5,248.5C 338.818,206.421 339.818,164.421 341.5,122.5 Z"/></g>
<g><path style="opacity:1" fill="#0f1111" d="M 690.5,200.5 C 703.825,204.165 717.158,207.831 730.5,211.5C 731.348,215.667 730.015,219.167 726.5,222C 731.968,228.469 737.801,234.636 744,240.5C 758.652,220.589 778.152,208.422 802.5,204C 842.927,203.145 868.427,222.312 879,261.5C 885.212,308.903 870.712,348.736 835.5,381C 813.882,398.822 789.548,404.155 762.5,397C 730.908,380.685 715.575,354.519 716.5,318.5C 717.178,295.469 723.511,274.135 735.5,254.5C 729.157,248.158 722.491,242.158 715.5,236.5C 712.683,238.817 710.016,241.317 707.5,244C 706.551,244.617 705.718,244.451 705,243.5C 700,230.5 695,217.5 690,204.5C 689.421,203.072 689.588,201.738 690.5,200.5 Z"/></g>
<g><path style="opacity:1" fill="#0f1010" d="M 232.5,158.5 C 253.518,192.019 274.184,225.853 294.5,260C 292.083,261.626 289.583,263.126 287,264.5C 268.552,229.27 250.385,193.937 232.5,158.5 Z"/></g>
<g><path style="opacity:1" fill="#0f1010" d="M 398.5,127.5 C 399.124,127.917 399.457,128.584 399.5,129.5C 390.83,170.516 382.164,211.516 373.5,252.5C 370.101,251.984 366.768,251.15 363.5,250C 376.331,209.512 387.997,168.679 398.5,127.5 Z"/></g>
<g><path style="opacity:1" fill="#212022" d="M 152.5,237.5 C 150.577,237.205 148.91,236.372 147.5,235C 149.668,234.751 151.335,235.584 152.5,237.5 Z"/></g>
<g><path style="opacity:1" fill="#101211" d="M 451.5,155.5 C 452.043,155.56 452.376,155.893 452.5,156.5C 434.255,192.657 415.755,228.657 397,264.5C 394.252,262.542 391.418,260.709 388.5,259C 409.726,224.614 430.726,190.114 451.5,155.5 Z"/></g>
<g><path style="opacity:1" fill="#101111" d="M 282.5,125.5 C 295.742,166.446 308.075,207.78 319.5,249.5C 317.206,251.388 314.539,252.722 311.5,253.5C 302.34,210.699 292.674,168.032 282.5,125.5 Z"/></g>
<g><path style="opacity:1" fill="#101111" d="M 181.5,186.5 C 211.994,216.161 242.661,245.661 273.5,275C 271.023,276.643 268.69,278.476 266.5,280.5C 237.383,249.724 209.05,218.391 181.5,186.5 Z"/></g>
<g><path style="opacity:1" fill="#fadd0b" d="M 335.5,255.5 C 371.187,254.596 399.687,268.263 421,296.5C 433.818,314.791 439.651,335.124 438.5,357.5C 382.166,357.333 325.832,357.5 269.5,358C 261.613,359.055 253.947,360.889 246.5,363.5C 243.994,312.321 266.661,277.821 314.5,260C 321.57,258.155 328.57,256.655 335.5,255.5 Z"/></g>
<g><path style="opacity:1" fill="#0f1111" d="M 495.5,192.5 C 496.525,192.897 496.692,193.563 496,194.5C 469.927,221.902 444.594,249.902 420,278.5C 419.163,280.007 417.996,280.507 416.5,280C 414.5,278 412.5,276 410.5,274C 439.032,246.966 467.365,219.8 495.5,192.5 Z"/></g>
<g><path style="opacity:1" fill="#0f1110" d="M 152.5,237.5 C 187.262,255.714 221.595,274.714 255.5,294.5C 254.365,296.799 253.032,298.966 251.5,301C 250.5,301.667 249.5,301.667 248.5,301C 216.263,280.058 184.263,258.891 152.5,237.5 Z"/></g>
<g><path style="opacity:1" fill="#f7f7f7" d="M 798.5,216.5 C 829.979,215.464 850.146,230.131 859,260.5C 864.95,301.65 852.783,336.483 822.5,365C 807.796,377.457 790.796,383.124 771.5,382C 753.953,378.126 741.453,367.96 734,351.5C 724.829,324.598 725.496,297.931 736,271.5C 737.829,267.172 740.162,263.172 743,259.5C 756.261,271.216 769.428,283.05 782.5,295C 779.391,306.22 783.391,310.553 794.5,308C 798.983,304.366 801.65,299.699 802.5,294C 811.93,287.869 821.097,281.369 830,274.5C 830.601,273.035 830.101,272.035 828.5,271.5C 819.083,277.293 809.583,282.959 800,288.5C 795.977,284.889 791.644,284.556 787,287.5C 775.034,275.197 763.368,262.531 752,249.5C 752.398,247.369 753.398,245.369 755,243.5C 766.865,230.112 781.365,221.112 798.5,216.5 Z"/></g>
<g><path style="opacity:1" fill="#131413" d="M 833.5,241.5 C 836.288,241.077 838.288,242.077 839.5,244.5C 836.942,248.932 833.276,251.432 828.5,252C 827.424,250.274 827.257,248.441 828,246.5C 829.812,244.7 831.645,243.033 833.5,241.5 Z"/></g>
<g><path style="opacity:1" fill="#151616" d="M 772.5,236.5 C 776.17,236.327 778.67,237.993 780,241.5C 780.5,245 779,246.5 775.5,246C 772.07,243.468 771.07,240.302 772.5,236.5 Z"/></g>
<g><path style="opacity:1" fill="#111312" d="M 804.5,225.5 C 807.738,225.349 810.071,226.682 811.5,229.5C 810.335,233.494 809.168,237.494 808,241.5C 806.23,243.418 804.063,243.918 801.5,243C 800.5,236.837 801.5,231.003 804.5,225.5 Z"/></g>
<g><path style="opacity:1" fill="#101211" d="M 846.5,273.5 C 851.747,273.64 852.747,275.806 849.5,280C 847.314,281.309 845.147,281.476 843,280.5C 842.833,279.667 842.667,278.833 842.5,278C 843.167,275.849 844.5,274.349 846.5,273.5 Z"/></g>
<g><path style="opacity:1" fill="#0f1010" d="M 531.5,235.5 C 533.379,235.393 533.712,235.893 532.5,237C 499.562,258.274 466.895,279.941 434.5,302C 433.668,302.688 433.002,302.521 432.5,301.5C 431.029,298.864 429.363,296.364 427.5,294C 462.715,275.232 497.381,255.732 531.5,235.5 Z"/></g>
<g><path style="opacity:1" fill="#0f1111" d="M 738.5,287.5 C 742.22,287.564 745.886,288.064 749.5,289C 751.984,291.284 752.151,293.784 750,296.5C 746.256,297.626 742.423,297.793 738.5,297C 736.006,293.91 736.006,290.744 738.5,287.5 Z"/></g>
<g><path style="opacity:1" fill="#131514" d="M 836.5,307.5 C 839.843,308.224 843.176,309.057 846.5,310C 847.591,312.064 847.758,314.231 847,316.5C 843.073,317.545 839.24,317.045 835.5,315C 834.426,314.261 833.759,313.261 833.5,312C 834.315,310.357 835.315,308.857 836.5,307.5 Z"/></g>
<g><path style="opacity:1" fill="#0f1110" d="M 120.5,286.5 C 120.735,285.903 121.235,285.57 122,285.5C 162.342,296.544 202.842,306.877 243.5,316.5C 242.833,319.5 242.167,322.5 241.5,325.5C 200.999,313.111 160.666,300.111 120.5,286.5 Z"/></g>
<g><path style="opacity:1" fill="#101111" d="M 556.5,286.5 C 557.873,286.343 559.207,286.51 560.5,287C 521.029,299.712 481.862,313.212 443,327.5C 442.06,323.899 440.893,320.399 439.5,317C 478.665,306.96 517.665,296.793 556.5,286.5 Z"/></g>
<g><path style="opacity:1" fill="#121312" d="M 738.5,323.5 C 740.167,323.5 741.833,323.5 743.5,323.5C 744.117,328.304 741.95,330.971 737,331.5C 735.268,331.266 734.434,330.266 734.5,328.5C 735.323,326.423 736.656,324.756 738.5,323.5 Z"/></g>
<g><path style="opacity:1" fill="#121312" d="M 821.5,339.5 C 826.946,340.567 828.946,343.733 827.5,349C 823.115,349.626 820.781,347.626 820.5,343C 820.648,341.744 820.982,340.577 821.5,339.5 Z"/></g>
<g><path style="opacity:1" fill="#0e100f" d="M 445.5,341.5 C 488.164,342.12 530.83,342.62 573.5,343C 530.902,346.9 488.235,349.733 445.5,351.5C 445.5,348.167 445.5,344.833 445.5,341.5 Z"/></g>
<g><path style="opacity:1" fill="#0e100f" d="M 112.5,343.5 C 154.33,342.501 196.33,342.168 238.5,342.5C 238.5,345.5 238.5,348.5 238.5,351.5C 196.436,349.781 154.436,347.114 112.5,343.5 Z"/></g>
<g><path style="opacity:1" fill="#131413" d="M 749.5,348.5 C 751.59,348.45 752.923,349.45 753.5,351.5C 752.163,354.324 750.33,356.658 748,358.5C 746.268,358.266 745.434,357.266 745.5,355.5C 746.071,352.687 747.404,350.354 749.5,348.5 Z"/></g>
<g><path style="opacity:1" fill="#141414" d="M 797.5,358.5 C 801.221,359.06 803.555,361.226 804.5,365C 803.119,368.942 800.952,369.442 798,366.5C 796.304,363.881 796.137,361.214 797.5,358.5 Z"/></g>
<g><path style="opacity:1" fill="#0f1110" d="M 772.5,355.5 C 775.127,355.293 776.793,356.46 777.5,359C 776.431,362.443 775.598,365.943 775,369.5C 772.598,374.315 769.765,374.648 766.5,370.5C 768.125,365.278 770.125,360.278 772.5,355.5 Z"/></g>
<g><path style="opacity:1" fill="#101212" d="M 277.5,372.5 C 343.503,372.167 409.503,372.5 475.5,373.5C 477.243,379.639 478.91,385.806 480.5,392C 476.374,397.744 472.874,403.911 470,410.5C 469.5,430.831 469.333,451.164 469.5,471.5C 483.745,471.824 497.912,471.49 512,470.5C 512.667,444.833 512.667,419.167 512,393.5C 510.477,386.74 508.643,380.073 506.5,373.5C 547.496,372.333 588.496,372.167 629.5,373C 644.445,392.385 658.278,412.552 671,433.5C 671.667,420.5 671.667,407.5 671,394.5C 668.515,387.221 666.349,379.887 664.5,372.5C 684.503,372.333 704.503,372.5 724.5,373C 727.226,379.785 730.226,386.452 733.5,393C 731.142,398.404 728.975,403.904 727,409.5C 726.5,447.499 726.333,485.499 726.5,523.5C 704.831,523.667 683.164,523.5 661.5,523C 658.369,518.867 654.869,515.034 651,511.5C 641,496.167 631,480.833 621,465.5C 618.897,484.938 620.731,503.938 626.5,522.5C 606.175,523.666 585.842,523.833 565.5,523C 563.353,519.885 560.853,517.052 558,514.5C 552.907,518.796 547.074,521.629 540.5,523C 505.5,523.667 470.5,523.667 435.5,523C 422.531,520.18 412.197,513.347 404.5,502.5C 397.939,513.776 388.273,520.609 375.5,523C 337.833,523.667 300.167,523.667 262.5,523C 259.279,519.779 256.113,516.613 253,513.5C 250.505,499.203 248.339,484.87 246.5,470.5C 253.811,471.469 261.144,471.636 268.5,471C 257.646,464.802 250.48,455.636 247,443.5C 245.103,428.523 245.103,413.523 247,398.5C 251.543,383.116 261.71,374.449 277.5,372.5 Z"/></g>
<g><path style="opacity:1" fill="#0d0f0e" d="M 238.5,366.5 C 240.101,369.55 241.101,372.884 241.5,376.5C 201.662,385.101 161.662,392.601 121.5,399C 160.662,388.296 199.662,377.463 238.5,366.5 Z"/></g>
<g><path style="opacity:1" fill="#f9de09" d="M 294.5,410.5 C 293.355,414.741 293.188,419.741 294,425.5C 294.833,427.667 296.333,429.167 298.5,430C 315.337,430.386 332.17,430.886 349,431.5C 353.347,431.499 357.514,431.166 361.5,430.5C 374.133,431.64 381.966,438.306 385,450.5C 385.667,461.167 385.667,471.833 385,482.5C 383.396,494.104 376.896,501.271 365.5,504C 330.835,504.5 296.168,504.667 261.5,504.5C 260.593,498.153 259.593,491.82 258.5,485.5C 259.404,484.791 259.737,483.791 259.5,482.5C 288.835,482.667 318.169,482.5 347.5,482C 350.028,479.427 351.028,476.261 350.5,472.5C 351.244,467.879 349.91,464.046 346.5,461C 338.907,459.884 331.241,459.384 323.5,459.5C 316.658,459.5 309.991,459.834 303.5,460.5C 293.722,460.856 284.056,460.023 274.5,458C 266.159,455.659 260.326,450.493 257,442.5C 256.333,428.5 256.333,414.5 257,400.5C 261.125,389.174 269.292,383.34 281.5,383C 314.5,382.333 347.5,382.333 380.5,383C 381.844,391.062 383.51,399.062 385.5,407C 356.574,404.762 327.574,404.096 298.5,405C 296.531,406.5 295.198,408.333 294.5,410.5 Z"/></g>
<g><path style="opacity:1" fill="#f9dd09" d="M 450.5,397.5 C 449.583,397.494 449.083,398.494 449,400.5C 448.333,424.5 448.333,448.5 449,472.5C 450.01,476.843 452.51,480.01 456.5,482C 476.338,482.829 496.004,482.662 515.5,481.5C 518.139,479.691 520.306,477.358 522,474.5C 522.667,447.167 522.667,419.833 522,392.5C 521.608,389.373 520.775,386.373 519.5,383.5C 531.5,382.167 543.5,382.167 555.5,383.5C 553.631,386.94 552.465,390.607 552,394.5C 551.961,424.54 551.294,454.54 550,484.5C 546.482,495.187 539.316,501.854 528.5,504.5C 495.833,504.5 463.167,504.5 430.5,504.5C 418.171,502.507 410.171,495.507 406.5,483.5C 407.663,457.337 407.83,431.003 407,404.5C 406.436,399.615 405.603,394.782 404.5,390C 404.892,388.989 405.559,388.489 406.5,388.5C 405.653,387.155 404.487,386.155 403,385.5C 402.601,385.728 402.435,386.062 402.5,386.5C 401.566,385.432 401.232,384.099 401.5,382.5C 419.845,382.167 438.179,382.5 456.5,383.5C 453.892,388.034 451.892,392.701 450.5,397.5 Z"/></g>
<g><path style="opacity:1" fill="#f9dd09" d="M 711.5,384.5 C 671.182,383.781 670.515,383.781 709.5,384.5C 708.778,388.506 707.945,392.506 707,396.5C 706.5,431.832 706.333,467.165 706.5,502.5C 690.153,502.833 673.82,502.499 657.5,501.5C 655.136,498.301 652.97,494.968 651,491.5C 650.601,491.728 650.435,492.062 650.5,492.5C 634.325,468.009 618.325,444.009 602.5,420.5C 601.778,420.082 601.278,419.416 601,418.5C 600.333,442.167 600.333,465.833 601,489.5C 601.295,493.756 602.462,497.756 604.5,501.5C 593.186,502.499 581.853,502.832 570.5,502.5C 571.058,499.656 571.725,496.822 572.5,494C 572.472,492.93 572.139,492.097 571.5,491.5C 571.263,490.209 571.596,489.209 572.5,488.5C 573.66,457.876 573.827,425.876 573,392.5C 572.667,391.833 572.333,391.167 572,390.5C 571.601,390.728 571.435,391.062 571.5,391.5C 570.516,388.949 569.516,386.282 568.5,383.5C 586.824,382.334 605.158,382.167 623.5,383C 643,413.167 662.5,443.333 682,473.5C 681.685,447.245 681.352,420.912 681,394.5C 680.134,390.736 678.967,387.069 677.5,383.5C 689.167,382.167 700.833,382.167 712.5,383.5C 712.376,384.107 712.043,384.44 711.5,384.5 Z"/></g>
<g><path style="opacity:1" fill="#f4f5f4" d="M 375.5,423.5 C 375.735,422.903 376.235,422.57 377,422.5C 382.729,424.179 388.562,425.346 394.5,426C 395.632,430.413 395.799,434.913 395,439.5C 390.109,432.1 383.609,426.767 375.5,423.5 Z"/></g>
<g><path style="opacity:1" fill="#ede608" d="M 294.5,410.5 C 294.334,415.179 294.501,419.845 295,424.5C 295.465,425.931 296.299,427.097 297.5,428C 318.86,428.29 340.193,429.123 361.5,430.5C 357.514,431.166 353.347,431.499 349,431.5C 332.17,430.886 315.337,430.386 298.5,430C 296.333,429.167 294.833,427.667 294,425.5C 293.188,419.741 293.355,414.741 294.5,410.5 Z"/></g>
<g><path style="opacity:1" fill="#efe609" d="M 602.5,420.5 C 602.333,444.169 602.5,467.836 603,491.5C 603.512,496.038 605.012,500.204 607.5,504C 594.167,504.667 580.833,504.667 567.5,504C 569.68,500.114 571.014,495.947 571.5,491.5C 572.139,492.097 572.472,492.93 572.5,494C 571.725,496.822 571.058,499.656 570.5,502.5C 581.853,502.832 593.186,502.499 604.5,501.5C 602.462,497.756 601.295,493.756 601,489.5C 600.333,465.833 600.333,442.167 601,418.5C 601.278,419.416 601.778,420.082 602.5,420.5 Z"/></g>
<g><path style="opacity:1" fill="#fdfe04" d="M 572.5,488.5 C 572.804,456.142 572.471,423.809 571.5,391.5C 571.435,391.062 571.601,390.728 572,390.5C 572.333,391.167 572.667,391.833 573,392.5C 573.827,425.876 573.66,457.876 572.5,488.5 Z"/></g>
<g><path style="opacity:1" fill="#faf506" d="M 406.5,483.5 C 405.692,455.863 405.192,428.196 405,400.5C 404.163,395.82 403.329,391.154 402.5,386.5C 402.435,386.062 402.601,385.728 403,385.5C 404.487,386.155 405.653,387.155 406.5,388.5C 405.559,388.489 404.892,388.989 404.5,390C 405.603,394.782 406.436,399.615 407,404.5C 407.83,431.003 407.663,457.337 406.5,483.5 Z"/></g>
<g><path style="opacity:1" fill="#fbf803" d="M 303.5,460.5 C 309.991,459.834 316.658,459.5 323.5,459.5C 331.241,459.384 338.907,459.884 346.5,461C 349.91,464.046 351.244,467.879 350.5,472.5C 351.028,476.261 350.028,479.427 347.5,482C 318.169,482.5 288.835,482.667 259.5,482.5C 259.737,483.791 259.404,484.791 258.5,485.5C 258.193,483.554 258.193,481.887 258.5,480.5C 287.791,481.658 317.125,481.825 346.5,481C 347,480.5 347.5,480 348,479.5C 348.667,474.5 348.667,469.5 348,464.5C 347.167,463.667 346.333,462.833 345.5,462C 331.52,460.911 317.52,460.411 303.5,460.5 Z"/></g>
<g><path style="opacity:1" fill="#ebe506" d="M 450.5,397.5 C 450.018,423.922 450.518,450.256 452,476.5C 453.543,478.378 455.376,479.878 457.5,481C 476.83,481.5 496.164,481.667 515.5,481.5C 496.004,482.662 476.338,482.829 456.5,482C 452.51,480.01 450.01,476.843 449,472.5C 448.333,448.5 448.333,424.5 449,400.5C 449.083,398.494 449.583,397.494 450.5,397.5 Z"/></g>
<g><path style="opacity:1" fill="#f9f503" d="M 711.5,384.5 C 709.536,390.355 708.203,396.355 707.5,402.5C 707.201,436.52 707.535,470.52 708.5,504.5C 691.833,504.5 675.167,504.5 658.5,504.5C 655.34,500.852 652.673,496.852 650.5,492.5C 650.435,492.062 650.601,491.728 651,491.5C 652.97,494.968 655.136,498.301 657.5,501.5C 673.82,502.499 690.153,502.833 706.5,502.5C 706.333,467.165 706.5,431.832 707,396.5C 707.945,392.506 708.778,388.506 709.5,384.5C 670.515,383.781 671.182,383.781 711.5,384.5 Z"/></g>
<g><path style="opacity:1" fill="#02021a" d="M 430.5,504.5 C 463.167,504.5 495.833,504.5 528.5,504.5C 528.506,505.417 527.506,505.917 525.5,506C 520.333,506.167 515.167,506.333 510,506.5C 482.764,505.998 456.264,505.332 430.5,504.5 Z"/></g>
<g><path style="opacity:1" fill="#0c0919" d="M 707.5,402.5 C 709.493,436.484 710.16,470.817 709.5,505.5C 692.325,505.83 675.325,505.497 658.5,504.5C 675.167,504.5 691.833,504.5 708.5,504.5C 707.535,470.52 707.201,436.52 707.5,402.5 Z"/></g>
<g><path style="opacity:1" fill="#101212" d="M 246.5,527.5 C 340.167,527.333 433.834,527.5 527.5,528C 534.847,544.704 541.013,561.871 546,579.5C 552.805,562.247 559.305,544.914 565.5,527.5C 632.837,527.167 700.17,527.5 767.5,528.5C 772.814,546.425 777.814,564.425 782.5,582.5C 777.489,582.334 772.489,582.501 767.5,583C 769.963,587.653 770.963,592.653 770.5,598C 769.923,606.159 769.589,614.325 769.5,622.5C 771.467,622.261 773.301,622.594 775,623.5C 778.245,628.825 781.079,634.325 783.5,640C 781.266,652.808 779.266,665.641 777.5,678.5C 714.166,678.667 650.832,678.5 587.5,678C 583.984,674.651 580.651,671.151 577.5,667.5C 580.926,659.8 582.759,651.8 583,643.5C 578.296,655.073 573.462,666.573 568.5,678C 554.5,678.667 540.5,678.667 526.5,678C 523.667,673.833 520.833,669.667 518,665.5C 513.471,654.914 509.138,644.247 505,633.5C 504.813,648.278 505.98,662.945 508.5,677.5C 469.838,678.667 431.171,678.833 392.5,678C 388.651,674.318 384.984,670.485 381.5,666.5C 383.642,660.598 385.476,654.598 387,648.5C 387.667,626.833 387.667,605.167 387,583.5C 386.25,582.874 385.416,582.374 384.5,582C 375.173,581.5 365.839,581.334 356.5,581.5C 356.333,606.502 356.5,631.502 357,656.5C 358.49,663.79 359.657,671.124 360.5,678.5C 337.831,678.667 315.164,678.5 292.5,678C 289,674.5 285.5,671 282,667.5C 283.177,661.128 284.844,654.795 287,648.5C 287.5,626.169 287.667,603.836 287.5,581.5C 274.963,580.301 262.963,582.301 251.5,587.5C 246.681,583.182 242.015,578.682 237.5,574C 240.873,558.602 243.873,543.102 246.5,527.5 Z"/></g>
<g><path style="opacity:1" fill="#03021a" d="M 382.5,563.5 C 383.609,556.129 383.276,548.796 381.5,541.5C 381.5,540.167 381.5,538.833 381.5,537.5C 339.5,537.5 297.5,537.5 255.5,537.5C 254.957,537.44 254.624,537.107 254.5,536.5C 297.496,535.333 340.496,535.167 383.5,536C 383.043,536.414 382.709,536.914 382.5,537.5C 383.828,546.448 384.828,555.448 385.5,564.5C 383.452,564.84 382.452,564.507 382.5,563.5 Z"/></g>
<g><path style="opacity:1" fill="#03021a" d="M 440.5,537.5 C 424.497,537.333 408.497,537.5 392.5,538C 394.193,540.934 395.193,544.101 395.5,547.5C 395.19,548.738 394.69,548.738 394,547.5C 393.489,545.122 392.822,542.788 392,540.5C 391.28,538.888 391.446,537.388 392.5,536C 408.833,535.333 425.167,535.333 441.5,536C 440.944,536.383 440.611,536.883 440.5,537.5 Z"/></g>
<g><path style="opacity:1" fill="#02021b" d="M 635.5,539.5 C 635.611,538.883 635.944,538.383 636.5,538C 615.836,537.5 595.169,537.333 574.5,537.5C 595.14,535.511 616.14,534.845 637.5,535.5C 637.843,537.483 637.176,538.817 635.5,539.5 Z"/></g>
<g><path style="opacity:1" fill="#04031a" d="M 760.5,543.5 C 760.737,542.209 760.404,541.209 759.5,540.5C 759.5,539.5 759.5,538.5 759.5,537.5C 723.167,537.5 686.833,537.5 650.5,537.5C 651.263,536.732 652.263,536.232 653.5,536C 689.165,535.5 724.832,535.333 760.5,535.5C 760.779,538.118 761.446,540.618 762.5,543C 761.906,543.464 761.239,543.631 760.5,543.5 Z"/></g>
<g><path style="opacity:1" fill="#fdf003" d="M 255.5,537.5 C 297.5,537.5 339.5,537.5 381.5,537.5C 381.5,538.833 381.5,540.167 381.5,541.5C 381.662,543.527 381.495,545.527 381,547.5C 380.503,544.854 380.336,542.187 380.5,539.5C 338.833,539.5 297.167,539.5 255.5,539.5C 255.5,538.833 255.5,538.167 255.5,537.5 Z"/></g>
<g><path style="opacity:1" fill="#fbf205" d="M 440.5,537.5 C 441.686,538.705 441.686,540.039 440.5,541.5C 425.742,539.541 410.742,538.875 395.5,539.5C 396.819,544.445 397.986,549.445 399,554.5C 399.667,585.5 399.667,616.5 399,647.5C 397.913,649.932 397.413,649.598 397.5,646.5C 397.667,615.165 397.5,583.832 397,552.5C 396.802,550.618 396.302,548.952 395.5,547.5C 395.193,544.101 394.193,540.934 392.5,538C 408.497,537.5 424.497,537.333 440.5,537.5 Z"/></g>
<g><path style="opacity:1" fill="#fdf004" d="M 650.5,537.5 C 686.833,537.5 723.167,537.5 759.5,537.5C 759.5,538.5 759.5,539.5 759.5,540.5C 759.565,540.938 759.399,541.272 759,541.5C 741.886,540.174 724.552,539.507 707,539.5C 688.092,539.565 669.259,540.232 650.5,541.5C 649.646,539.965 649.646,538.632 650.5,537.5 Z"/></g>
<g><path style="opacity:1" fill="#f9dd09" d="M 255.5,539.5 C 297.167,539.5 338.833,539.5 380.5,539.5C 380.336,542.187 380.503,544.854 381,547.5C 381.495,545.527 381.662,543.527 381.5,541.5C 383.276,548.796 383.609,556.129 382.5,563.5C 382.158,562.662 381.492,562.328 380.5,562.5C 378.167,562.5 375.833,562.5 373.5,562.5C 373.5,562.167 373.5,561.833 373.5,561.5C 365.532,560.461 353.532,560.127 337.5,560.5C 337.333,588.835 337.5,617.169 338,645.5C 338.333,646.833 338.667,648.167 339,649.5C 339.464,648.906 339.631,648.239 339.5,647.5C 340.615,651.046 341.615,654.712 342.5,658.5C 326.325,658.83 310.325,658.496 294.5,657.5C 295.5,654.167 296.5,650.833 297.5,647.5C 298.459,618.854 298.792,590.188 298.5,561.5C 286.136,561.248 273.803,561.582 261.5,562.5C 257.739,562.648 254.239,563.648 251,565.5C 251.626,556.603 253.126,547.936 255.5,539.5 Z"/></g>
<g><path style="opacity:1" fill="#f9dd09" d="M 440.5,541.5 C 439.833,543.833 439.167,546.167 438.5,548.5C 437.523,578.802 437.19,609.135 437.5,639.5C 437.527,645.993 438.527,652.326 440.5,658.5C 425.181,659.499 409.848,659.833 394.5,659.5C 395.373,655.017 396.373,650.683 397.5,646.5C 397.413,649.598 397.913,649.932 399,647.5C 399.667,616.5 399.667,585.5 399,554.5C 397.986,549.445 396.819,544.445 395.5,539.5C 410.742,538.875 425.742,539.541 440.5,541.5 Z"/></g>
<g><path style="opacity:1" fill="#f9dd09" d="M 574.5,537.5 C 595.169,537.333 615.836,537.5 636.5,538C 635.944,538.383 635.611,538.883 635.5,539.5C 634.488,542.252 633.488,544.919 632.5,547.5C 631.659,546.991 631.159,547.657 631,549.5C 630.18,584.187 630.347,615.52 631.5,643.5C 632.35,648.733 633.35,654.066 634.5,659.5C 619.833,659.5 605.167,659.5 590.5,659.5C 590.205,657.265 590.539,655.265 591.5,653.5C 591.369,654.239 591.536,654.906 592,655.5C 594.438,644.149 595.604,632.649 595.5,621C 595.074,603.997 594.407,587.163 593.5,570.5C 580.126,599.594 566.959,628.928 554,658.5C 544.56,659.817 535.06,659.817 525.5,658.5C 513.431,628.46 501.264,598.46 489,568.5C 487.628,593.487 487.295,618.487 488,643.5C 488.381,648.689 489.547,653.689 491.5,658.5C 480.52,659.499 469.52,659.832 458.5,659.5C 458.676,656.273 459.343,653.273 460.5,650.5C 460.351,651.552 460.517,652.552 461,653.5C 462.891,645.45 463.725,637.283 463.5,629C 462.807,603.171 462.307,577.338 462,551.5C 461.917,549.494 461.417,548.494 460.5,548.5C 459.513,545.287 458.513,541.954 457.5,538.5C 478.156,537.5 498.823,537.167 519.5,537.5C 527.498,561.825 536.331,585.825 546,609.5C 554.842,585.123 564.342,561.123 574.5,537.5 Z"/></g>
<g><path style="opacity:1" fill="#f7db09" d="M 759.5,540.5 C 760.404,541.209 760.737,542.209 760.5,543.5C 762.316,549.761 763.982,556.095 765.5,562.5C 765.167,562.833 764.833,563.167 764.5,563.5C 761.209,562.618 757.876,561.952 754.5,561.5C 733.833,561.5 713.167,561.5 692.5,561.5C 691.501,568.745 691.168,576.745 691.5,585.5C 711.5,585.5 731.5,585.5 751.5,585.5C 751.686,592.881 751.186,600.214 750,607.5C 730.573,606.341 711.073,606.174 691.5,607C 690.35,615.755 690.184,624.588 691,633.5C 691.333,634.167 691.667,634.833 692,635.5C 692.399,635.272 692.565,634.938 692.5,634.5C 711.168,634.787 729.834,635.121 748.5,635.5C 753.775,635.362 758.941,634.695 764,633.5C 764.805,636.696 764.638,639.696 763.5,642.5C 763.649,641.448 763.483,640.448 763,639.5C 762.165,645.514 761.332,651.514 760.5,657.5C 724.167,657.5 687.833,657.5 651.5,657.5C 652.136,627.353 652.802,597.353 653.5,567.5C 653.333,594.502 653.5,621.502 654,648.5C 654.667,615.5 654.667,582.5 654,549.5C 653.96,546.445 653.127,544.445 651.5,543.5C 650.662,543.158 650.328,542.492 650.5,541.5C 669.259,540.232 688.092,539.565 707,539.5C 724.552,539.507 741.886,540.174 759,541.5C 759.399,541.272 759.565,540.938 759.5,540.5 Z"/></g>
<g><path style="opacity:1" fill="#00001a" d="M 373.5,562.5 C 375.833,562.5 378.167,562.5 380.5,562.5C 367.344,563.496 354.01,563.829 340.5,563.5C 340.831,590.672 340.498,617.672 339.5,644.5C 339.5,644.167 339.5,643.833 339.5,643.5C 339.5,616.5 339.5,589.5 339.5,562.5C 350.833,562.5 362.167,562.5 373.5,562.5 Z"/></g>
<g><path style="opacity:1" fill="#fdfd03" d="M 653.5,567.5 C 653.761,559.408 653.094,551.408 651.5,543.5C 653.127,544.445 653.96,546.445 654,549.5C 654.667,582.5 654.667,615.5 654,648.5C 653.5,621.502 653.333,594.502 653.5,567.5 Z"/></g>
<g><path style="opacity:1" fill="#02021a" d="M 692.5,561.5 C 713.167,561.5 733.833,561.5 754.5,561.5C 734.674,562.497 714.674,562.83 694.5,562.5C 694.334,569.508 694.5,576.508 695,583.5C 713.598,582.169 732.098,582.169 750.5,583.5C 731.183,584.393 711.85,584.726 692.5,584.5C 692.5,576.833 692.5,569.167 692.5,561.5 Z"/></g>
<g><path style="opacity:1" fill="#fbf806" d="M 460.5,650.5 C 461.81,616.505 461.81,582.505 460.5,548.5C 461.417,548.494 461.917,549.494 462,551.5C 462.307,577.338 462.807,603.171 463.5,629C 463.725,637.283 462.891,645.45 461,653.5C 460.517,652.552 460.351,651.552 460.5,650.5 Z"/></g>
<g><path style="opacity:1" fill="#fcfd04" d="M 632.5,547.5 C 631.529,579.475 631.196,611.475 631.5,643.5C 630.347,615.52 630.18,584.187 631,549.5C 631.159,547.657 631.659,546.991 632.5,547.5 Z"/></g>
<g><path style="opacity:1" fill="#fefd06" d="M 373.5,561.5 C 361.833,561.5 350.167,561.5 338.5,561.5C 338.169,589.005 338.502,616.338 339.5,643.5C 339.5,643.833 339.5,644.167 339.5,644.5C 339.5,645.5 339.5,646.5 339.5,647.5C 339.631,648.239 339.464,648.906 339,649.5C 338.667,648.167 338.333,646.833 338,645.5C 337.5,617.169 337.333,588.835 337.5,560.5C 353.532,560.127 365.532,560.461 373.5,561.5 Z"/></g>
<g><path style="opacity:1" fill="#251f1a" d="M 297.5,647.5 C 296.503,647.53 295.836,647.03 295.5,646C 296.487,618.532 296.821,591.032 296.5,563.5C 284.655,563.828 272.988,563.495 261.5,562.5C 273.803,561.582 286.136,561.248 298.5,561.5C 298.792,590.188 298.459,618.854 297.5,647.5 Z"/></g>
<g><path style="opacity:1" fill="#02011c" d="M 438.5,548.5 C 438.743,572.235 439.077,596.068 439.5,620C 438.85,626.599 438.184,633.099 437.5,639.5C 437.19,609.135 437.523,578.802 438.5,548.5 Z"/></g>
<g><path style="opacity:1" fill="#1a171a" d="M 748.5,608.5 C 748.631,609.239 748.464,609.906 748,610.5C 730.243,609.508 712.41,609.174 694.5,609.5C 694.5,617.5 694.5,625.5 694.5,633.5C 710.503,633.333 726.503,633.5 742.5,634C 744.708,634.191 746.708,634.691 748.5,635.5C 729.834,635.121 711.168,634.787 692.5,634.5C 692.5,625.5 692.5,616.5 692.5,607.5C 711.213,607.192 729.88,607.526 748.5,608.5 Z"/></g>
<g><path style="opacity:1" fill="#faf405" d="M 692.5,561.5 C 692.5,569.167 692.5,576.833 692.5,584.5C 711.85,584.726 731.183,584.393 750.5,583.5C 751.5,583.5 752.5,583.5 753.5,583.5C 753.248,592.196 752.581,600.863 751.5,609.5C 750.583,608.873 749.583,608.539 748.5,608.5C 729.88,607.526 711.213,607.192 692.5,607.5C 692.5,616.5 692.5,625.5 692.5,634.5C 692.565,634.938 692.399,635.272 692,635.5C 691.667,634.833 691.333,634.167 691,633.5C 690.184,624.588 690.35,615.755 691.5,607C 711.073,606.174 730.573,606.341 750,607.5C 751.186,600.214 751.686,592.881 751.5,585.5C 731.5,585.5 711.5,585.5 691.5,585.5C 691.168,576.745 691.501,568.745 692.5,561.5 Z"/></g>
<g><path style="opacity:1" fill="#bca80f" d="M 373.5,561.5 C 373.5,561.833 373.5,562.167 373.5,562.5C 362.167,562.5 350.833,562.5 339.5,562.5C 339.5,589.5 339.5,616.5 339.5,643.5C 338.502,616.338 338.169,589.005 338.5,561.5C 350.167,561.5 361.833,561.5 373.5,561.5 Z"/></g>
<g><path style="opacity:1" fill="#faf604" d="M 593.5,570.5 C 594.407,587.163 595.074,603.997 595.5,621C 595.604,632.649 594.438,644.149 592,655.5C 591.536,654.906 591.369,654.239 591.5,653.5C 591.952,649.837 592.452,646.17 593,642.5C 593.5,618.502 593.667,594.502 593.5,570.5 Z"/></g>
<g><path style="opacity:1" fill="#fefe06" d="M 763.5,642.5 C 763.167,647.167 762.833,651.833 762.5,656.5C 744.051,657.821 725.384,658.487 706.5,658.5C 687.997,658.5 669.664,658.167 651.5,657.5C 687.833,657.5 724.167,657.5 760.5,657.5C 761.332,651.514 762.165,645.514 763,639.5C 763.483,640.448 763.649,641.448 763.5,642.5 Z"/></g>
<g><path style="opacity:1" fill="#baa90c" d="M 294.5,657.5 C 310.325,658.496 326.325,658.83 342.5,658.5C 326.328,659.827 309.995,659.827 293.5,658.5C 293.624,657.893 293.957,657.56 294.5,657.5 Z"/></g>
<g><path style="opacity:1" fill="#b9a70b" d="M 762.5,656.5 C 762.5,657.5 762.5,658.5 762.5,659.5C 725.161,659.833 687.827,659.5 650.5,658.5C 650.624,657.893 650.957,657.56 651.5,657.5C 669.664,658.167 687.997,658.5 706.5,658.5C 725.384,658.487 744.051,657.821 762.5,656.5 Z"/></g>
<g><path style="opacity:1" fill="#101212" d="M 260.5,683.5 C 288.175,683.167 315.841,683.5 343.5,684.5C 345.372,690.284 347.539,695.951 350,701.5C 355.113,691.386 363.28,685.553 374.5,684C 397.833,683.333 421.167,683.333 444.5,684C 457.199,686.363 466.033,693.53 471,705.5C 471.339,698.373 470.506,691.373 468.5,684.5C 486.824,683.334 505.158,683.167 523.5,684C 526.5,689 529.5,694 532.5,699C 530.595,705.449 528.762,711.949 527,718.5C 526.5,730.829 526.333,743.162 526.5,755.5C 541.17,755.667 555.837,755.5 570.5,755C 579.736,736.028 588.569,716.862 597,697.5C 598.029,692.856 598.862,688.19 599.5,683.5C 617.167,683.5 634.833,683.5 652.5,683.5C 665.036,710.592 677.87,737.592 691,764.5C 691.667,744.833 691.667,725.167 691,705.5C 690.632,698.23 689.799,691.063 688.5,684C 719.5,683.333 750.5,683.333 781.5,684C 789.602,685.633 796.436,689.466 802,695.5C 812.892,712.889 815.558,731.556 810,751.5C 807.373,756.291 803.873,760.291 799.5,763.5C 807.042,775.418 814.709,787.252 822.5,799C 805.167,799.667 787.833,799.667 770.5,799C 764.292,790.087 758.459,780.921 753,771.5C 749.792,769.547 746.292,768.714 742.5,769C 743.89,779.066 744.556,789.233 744.5,799.5C 713.826,799.833 683.159,799.5 652.5,798.5C 648.919,793.672 645.585,788.672 642.5,783.5C 632.273,782.822 622.106,782.156 612,781.5C 609.554,787.277 607.721,793.277 606.5,799.5C 563.165,799.667 519.832,799.5 476.5,799C 473.882,796.261 471.382,793.427 469,790.5C 463.419,795.372 456.919,798.206 449.5,799C 426.833,799.667 404.167,799.667 381.5,799C 377.363,798.066 373.363,796.732 369.5,795C 364.684,791.019 360.018,786.852 355.5,782.5C 349.125,792.86 339.792,798.36 327.5,799C 301.5,799.667 275.5,799.667 249.5,799C 247,796.5 244.5,794 242,791.5C 239.401,779.902 237.234,768.236 235.5,756.5C 241.496,757.134 247.496,757.3 253.5,757C 243.256,751.088 237.423,742.254 236,730.5C 235.446,722.14 235.779,713.806 237,705.5C 240.523,693.475 248.356,686.142 260.5,683.5 Z"/></g>
<g><path style="opacity:1" fill="#f9de08" d="M 731.5,781.5 C 726.208,782.829 720.542,783.496 714.5,783.5C 708.833,783.167 703.167,782.833 697.5,782.5C 698.05,780.343 698.717,778.343 699.5,776.5C 699.369,777.239 699.536,777.906 700,778.5C 700.333,777.5 700.667,776.5 701,775.5C 701.667,751.5 701.667,727.5 701,703.5C 700.802,701.618 700.302,699.952 699.5,698.5C 698.717,696.657 698.05,694.657 697.5,692.5C 725.161,691.333 752.827,691.167 780.5,692C 794.401,694.743 801.068,703.243 800.5,717.5C 800.193,724.571 799.36,731.571 798,738.5C 794.476,745.854 788.643,750.188 780.5,751.5C 787.304,762.136 794.304,772.636 801.5,783C 790.833,783.667 780.167,783.667 769.5,783C 763.708,773.917 758.041,764.75 752.5,755.5C 744.862,754.503 737.196,754.169 729.5,754.5C 729.334,761.841 729.5,769.174 730,776.5C 730.198,778.382 730.698,780.048 731.5,781.5 Z"/></g>
<g><path style="opacity:1" fill="#f9de09" d="M 648.5,767.5 C 632.574,766.35 616.574,766.183 600.5,767C 598.099,770.969 596.099,775.135 594.5,779.5C 595.853,780.524 596.52,781.857 596.5,783.5C 586.81,783.832 577.144,783.498 567.5,782.5C 577.942,759.289 588.608,736.289 599.5,713.5C 603.365,708.134 606.699,701.801 609.5,694.5C 621.061,693.823 632.561,693.157 644,692.5C 658.074,720.983 671.907,749.649 685.5,778.5C 685.023,779.478 684.357,780.311 683.5,781C 673.839,781.5 664.172,781.666 654.5,781.5C 653.296,775.829 651.296,771.162 648.5,767.5 Z"/></g>
<g><path style="opacity:1" fill="#f9de08" d="M 516.5,691.5 C 515.144,696.271 513.811,700.937 512.5,705.5C 512.649,704.448 512.483,703.448 512,702.5C 511.667,703.833 511.333,705.167 511,706.5C 510.333,725.833 510.333,745.167 511,764.5C 527.756,765.492 544.589,765.825 561.5,765.5C 560.836,769.154 560.169,772.82 559.5,776.5C 559.52,777.726 559.853,778.726 560.5,779.5C 560.461,780.583 560.127,781.583 559.5,782.5C 531.506,783.667 503.506,783.833 475.5,783C 476.267,781.53 476.933,780.03 477.5,778.5C 478.645,774.584 479.478,770.584 480,766.5C 480.667,744.5 480.667,722.5 480,700.5C 479.304,697.522 478.804,694.522 478.5,691.5C 491.167,691.5 503.833,691.5 516.5,691.5 Z"/></g>
<g><path style="opacity:1" fill="#f9df08" d="M 374.5,691.5 C 397.169,691.333 419.836,691.5 442.5,692C 452.919,693.089 459.752,698.589 463,708.5C 463.667,727.833 463.667,747.167 463,766.5C 460.754,775.744 454.921,781.244 445.5,783C 421.167,783.667 396.833,783.667 372.5,783C 363.228,780.728 357.728,774.895 356,765.5C 355.333,747.833 355.333,730.167 356,712.5C 358.169,701.839 364.336,694.839 374.5,691.5 Z"/></g>
<g><path style="opacity:1" fill="#f9de08" d="M 336.5,691.5 C 337.926,697.691 339.259,704.024 340.5,710.5C 339.5,710.833 338.5,711.167 337.5,711.5C 316.546,709.525 295.546,709.025 274.5,710C 270.514,715.049 270.514,720.049 274.5,725C 291.165,725.718 307.831,726.385 324.5,727C 333.691,727.863 339.524,732.696 342,741.5C 342.667,749.5 342.667,757.5 342,765.5C 341.004,775.498 335.504,781.331 325.5,783C 299.502,783.5 273.502,783.667 247.5,783.5C 246.815,777.581 245.815,771.747 244.5,766C 266.833,765.667 289.167,765.333 311.5,765C 312,764.5 312.5,764 313,763.5C 313.667,759.167 313.667,754.833 313,750.5C 312.25,749.874 311.416,749.374 310.5,749C 294.174,748.167 277.84,747.5 261.5,747C 252.231,746.222 246.565,741.389 244.5,732.5C 245.16,723.961 245.993,715.294 247,706.5C 248.689,701.475 251.856,697.641 256.5,695C 283.471,694.207 310.137,693.04 336.5,691.5 Z"/></g>
<g><path style="opacity:1" fill="#faf404" d="M 336.5,691.5 C 310.137,693.04 283.471,694.207 256.5,695C 251.856,697.641 248.689,701.475 247,706.5C 245.993,715.294 245.16,723.961 244.5,732.5C 244.334,724.16 244.5,715.827 245,707.5C 247.013,700.819 251.18,695.986 257.5,693C 283.782,691.536 310.115,691.036 336.5,691.5 Z"/></g>
<g><path style="opacity:1" fill="#070519" d="M 516.5,691.5 C 503.833,691.5 491.167,691.5 478.5,691.5C 478.804,694.522 479.304,697.522 480,700.5C 480.667,722.5 480.667,744.5 480,766.5C 479.478,770.584 478.645,774.584 477.5,778.5C 476.876,778.083 476.543,777.416 476.5,776.5C 477,774.5 477.5,772.5 478,770.5C 478.167,758.333 478.333,746.167 478.5,734C 478.612,719.714 478.112,705.548 477,691.5C 477.75,690.874 478.584,690.374 479.5,690C 491.167,689.333 502.833,689.333 514.5,690C 515.416,690.278 516.082,690.778 516.5,691.5 Z"/></g>
<g><path style="opacity:1" fill="#eee707" d="M 512.5,705.5 C 512.5,724.833 512.5,744.167 512.5,763.5C 529.513,763.167 546.513,763.501 563.5,764.5C 562.593,769.518 561.593,774.518 560.5,779.5C 559.853,778.726 559.52,777.726 559.5,776.5C 560.169,772.82 560.836,769.154 561.5,765.5C 544.589,765.825 527.756,765.492 511,764.5C 510.333,745.167 510.333,725.833 511,706.5C 511.333,705.167 511.667,703.833 512,702.5C 512.483,703.448 512.649,704.448 512.5,705.5 Z"/></g>
<g><path style="opacity:1" fill="#0e1011" d="M 391.5,710.5 C 403.505,710.333 415.505,710.5 427.5,711C 429.848,711.346 431.681,712.513 433,714.5C 434.136,722.401 434.636,730.401 434.5,738.5C 434.333,745.833 434.167,753.167 434,760.5C 433.626,761.416 433.126,762.25 432.5,763C 418.594,764.631 404.594,764.964 390.5,764C 389.069,763.535 387.903,762.701 387,761.5C 385.385,747.235 385.052,732.902 386,718.5C 386.625,714.891 388.458,712.224 391.5,710.5 Z"/></g>
<g><path style="opacity:1" fill="#0e1012" d="M 729.5,710.5 C 742.171,710.333 754.838,710.5 767.5,711C 771.001,713.335 772.667,716.668 772.5,721C 772.372,724.677 771.539,728.177 770,731.5C 768.933,732.191 767.766,732.691 766.5,733C 754.171,733.5 741.838,733.667 729.5,733.5C 729.5,725.833 729.5,718.167 729.5,710.5 Z"/></g>
<g><path style="opacity:1" fill="#0f1013" d="M 639.5,746.5 C 629.681,747.494 619.681,747.827 609.5,747.5C 614.824,736.851 620.158,726.184 625.5,715.5C 630.436,725.706 635.103,736.039 639.5,746.5 Z"/></g>
<g><path style="opacity:1" fill="#f5f6f5" d="M 343.5,726.5 C 344.935,725.904 346.602,725.904 348.5,726.5C 348.66,728.199 348.494,729.866 348,731.5C 346.951,729.382 345.451,727.716 343.5,726.5 Z"/></g>
<g><path style="opacity:1" fill="#f5f5f5" d="M 404.5,727.5 C 411.833,727.5 419.167,727.5 426.5,727.5C 426.5,737.167 426.5,746.833 426.5,756.5C 417.5,756.5 408.5,756.5 399.5,756.5C 399.154,747.441 399.654,738.441 401,729.5C 402.302,728.915 403.469,728.249 404.5,727.5 Z"/></g>
<g><path style="opacity:1" fill="#f5ec07" d="M 648.5,767.5 C 651.296,771.162 653.296,775.829 654.5,781.5C 664.172,781.666 673.839,781.5 683.5,781C 684.357,780.311 685.023,779.478 685.5,778.5C 671.907,749.649 658.074,720.983 644,692.5C 632.561,693.157 621.061,693.823 609.5,694.5C 606.699,701.801 603.365,708.134 599.5,713.5C 602.015,706.795 605.015,700.295 608.5,694C 607.692,693.692 607.025,693.192 606.5,692.5C 619.5,691.167 632.5,691.167 645.5,692.5C 660.198,722.562 674.865,752.562 689.5,782.5C 676.851,783.499 664.184,783.832 651.5,783.5C 651.519,781.94 651.852,780.44 652.5,779C 651.006,775.188 649.673,771.355 648.5,767.5 Z"/></g>
<g><path style="opacity:1" fill="#fdf904" d="M 699.5,698.5 C 700.302,699.952 700.802,701.618 701,703.5C 701.667,727.5 701.667,751.5 701,775.5C 700.667,776.5 700.333,777.5 700,778.5C 699.536,777.906 699.369,777.239 699.5,776.5C 699.5,751.833 699.5,727.167 699.5,702.5C 699.5,701.167 699.5,699.833 699.5,698.5 Z"/></g>
<g><path style="opacity:1" fill="#847413" d="M 639.5,746.5 C 640.043,746.56 640.376,746.893 640.5,747.5C 630.007,748.823 619.674,748.823 609.5,747.5C 619.681,747.827 629.681,747.494 639.5,746.5 Z"/></g>
<g><path style="opacity:1" fill="#030316" d="M 699.5,702.5 C 699.5,727.167 699.5,751.833 699.5,776.5C 698.717,778.343 698.05,780.343 697.5,782.5C 703.167,782.833 708.833,783.167 714.5,783.5C 720.542,783.496 726.208,782.829 731.5,781.5C 732.791,782.542 732.791,783.708 731.5,785C 719.486,785.833 707.486,785.666 695.5,784.5C 697.007,782.031 696.673,779.865 694.5,778C 695.715,775.904 696.549,776.071 697,778.5C 697.333,755.5 697.667,732.5 698,709.5C 698.186,706.964 698.686,704.631 699.5,702.5 Z"/></g>
<g><path style="opacity:1" fill="#101211" d="M 680.5,833.5 C 686.086,833.92 688.586,836.92 688,842.5C 686.309,846.213 683.475,847.379 679.5,846C 675.309,841.46 675.642,837.293 680.5,833.5 Z"/></g>
<g><path style="opacity:1" fill="#0f1110" d="M 260.5,835.5 C 266.442,835.237 272.276,835.904 278,837.5C 279.226,837.355 280.393,837.022 281.5,836.5C 281.833,837 282.167,837.5 282.5,838C 281.236,842.752 280.569,847.586 280.5,852.5C 279.5,852.5 278.5,852.5 277.5,852.5C 277.677,840.246 272.01,836.413 260.5,841C 255.805,845.349 255.305,850.182 259,855.5C 265.333,860.5 271,866.167 276,872.5C 279.59,887.157 274.09,896.323 259.5,900C 256.833,900.667 254.167,900.667 251.5,900C 246.993,898.107 242.327,896.941 237.5,896.5C 238.176,890.11 239.176,883.777 240.5,877.5C 241.5,877.5 242.5,877.5 243.5,877.5C 242.646,885.317 245.312,891.483 251.5,896C 259.158,897.754 264.324,894.921 267,887.5C 267.652,884.406 267.318,881.406 266,878.5C 260.857,873.268 255.524,868.268 250,863.5C 243.751,850.406 247.251,841.072 260.5,835.5 Z"/></g>
<g><path style="opacity:1" fill="#0f1010" d="M 304.5,855.5 C 320.021,853.859 326.521,860.859 324,876.5C 320.24,891.621 310.74,899.121 295.5,899C 292.087,897.923 289.587,895.756 288,892.5C 284.276,875.955 289.776,863.622 304.5,855.5 Z"/></g>
<g><path style="opacity:1" fill="#101211" d="M 710.5,854.5 C 721.765,854.432 727.432,860.098 727.5,871.5C 726.759,885.062 720.092,894.229 707.5,899C 700.265,900.927 694.765,898.76 691,892.5C 687.794,881.777 689.794,872.11 697,863.5C 700.882,859.429 705.382,856.429 710.5,854.5 Z"/></g>
<g><path style="opacity:1" fill="#101111" d="M 378.5,854.5 C 382.909,853.618 386.409,854.952 389,858.5C 391.526,855.547 394.692,854.381 398.5,855C 394.043,867.204 390.71,879.704 388.5,892.5C 391.381,891.726 394.048,890.393 396.5,888.5C 397.308,888.808 397.975,889.308 398.5,890C 394.304,894.843 389.138,898.01 383,899.5C 381.564,899.441 380.231,899.108 379,898.5C 379.372,892.358 380.372,886.358 382,880.5C 378.455,888.431 372.955,894.598 365.5,899C 359.653,900.328 355.82,898.161 354,892.5C 353.71,878.58 359.21,867.413 370.5,859C 373.391,857.726 376.058,856.226 378.5,854.5 Z"/></g>
<g><path style="opacity:1" fill="#0f1111" d="M 487.5,835.5 C 495.407,835.464 503.074,836.13 510.5,837.5C 509.67,842.654 508.337,847.654 506.5,852.5C 505.914,852.291 505.414,851.957 505,851.5C 503.758,839.293 497.592,836.127 486.5,842C 482.677,846.295 482.511,850.795 486,855.5C 491.635,860.133 496.968,865.133 502,870.5C 507.209,885.249 502.376,895.082 487.5,900C 484.833,900.667 482.167,900.667 479.5,900C 474.698,897.897 469.698,896.731 464.5,896.5C 465.419,889.817 467.085,883.484 469.5,877.5C 470.894,882.178 472.394,886.845 474,891.5C 481.753,898.654 488.42,897.654 494,888.5C 494.667,885.5 494.667,882.5 494,879.5C 488.688,873.856 483.021,868.523 477,863.5C 470.751,850.406 474.251,841.072 487.5,835.5 Z"/></g>
<g><path style="opacity:1" fill="#101111" d="M 413.5,855.5 C 421.103,853.418 423.936,856.085 422,863.5C 420.425,869.2 419.092,874.866 418,880.5C 421.182,871.293 426.016,863.127 432.5,856C 440,854.167 442.833,857 441,864.5C 439.737,866.797 437.903,867.63 435.5,867C 434.315,865.647 432.981,864.48 431.5,863.5C 422.888,873.725 417.221,885.392 414.5,898.5C 411.15,898.665 407.817,898.498 404.5,898C 408.33,886.021 410.663,873.854 411.5,861.5C 409.004,862.58 406.67,863.914 404.5,865.5C 404.167,865.167 403.833,864.833 403.5,864.5C 406.257,860.737 409.59,857.737 413.5,855.5 Z"/></g>
<g><path style="opacity:1" fill="#101111" d="M 354.5,830.5 C 355.376,830.369 356.043,830.702 356.5,831.5C 349.899,851.304 343.899,871.304 338.5,891.5C 338.833,892.167 339.167,892.833 339.5,893.5C 342.503,892.334 345.17,890.667 347.5,888.5C 348.583,889.365 348.749,890.365 348,891.5C 344.778,894.388 341.278,896.888 337.5,899C 330,900.833 327.167,898 329,890.5C 333.989,873.545 338.822,856.545 343.5,839.5C 343.392,838.558 343.059,837.725 342.5,837C 340.423,836.808 338.423,836.308 336.5,835.5C 336.709,834.914 337.043,834.414 337.5,834C 343.462,833.642 349.129,832.475 354.5,830.5 Z"/></g>
<g><path style="opacity:1" fill="#101211" d="M 678.5,854.5 C 681.049,854.937 682.382,856.437 682.5,859C 679.258,870.223 675.925,881.39 672.5,892.5C 684.681,887.2 685.347,888.7 674.5,897C 663.805,901.975 660.305,898.808 664,887.5C 667.386,879.026 669.719,870.359 671,861.5C 668.691,862.975 666.524,864.642 664.5,866.5C 663.5,866.167 662.833,865.5 662.5,864.5C 667.124,859.845 672.458,856.511 678.5,854.5 Z"/></g>
<g><path style="opacity:1" fill="#f6f6f6" d="M 710.5,858.5 C 713.044,858.104 715.211,858.771 717,860.5C 718.465,871.508 716.465,881.841 711,891.5C 708.113,896.142 704.446,897.142 700,894.5C 697.924,880.892 701.424,868.892 710.5,858.5 Z"/></g>
<g><path style="opacity:1" fill="#0f1111" d="M 744.5,855.5 C 746.857,855.337 749.19,855.503 751.5,856C 752.097,857.062 752.43,858.228 752.5,859.5C 750.976,865.596 749.476,871.596 748,877.5C 751.053,870.556 755.219,864.389 760.5,859C 765.025,855.114 769.858,854.614 775,857.5C 775.667,860.5 775.667,863.5 775,866.5C 771.869,874.727 769.035,883.061 766.5,891.5C 766.833,892.167 767.167,892.833 767.5,893.5C 770.009,892.079 772.343,890.412 774.5,888.5C 775.308,888.808 775.975,889.308 776.5,890C 773.167,892.667 769.833,895.333 766.5,898C 763.97,899.422 761.303,899.755 758.5,899C 756.484,897.972 755.484,896.305 755.5,894C 759.144,883.57 762.477,873.07 765.5,862.5C 761.853,862.622 759.019,864.288 757,867.5C 750.512,876.81 745.345,886.81 741.5,897.5C 738.5,898.833 735.5,898.833 732.5,897.5C 736.137,886.089 739.47,874.589 742.5,863C 742.167,862.5 741.833,862 741.5,861.5C 738.864,862.971 736.364,864.637 734,866.5C 733.5,866 733,865.5 732.5,865C 736.024,861.091 740.024,857.924 744.5,855.5 Z"/></g>
<g><path style="opacity:1" fill="#f3f4f4" d="M 378.5,857.5 C 381.368,857.085 383.535,858.085 385,860.5C 384.01,872.981 378.843,883.481 369.5,892C 365.265,893.1 363.599,891.433 364.5,887C 365.65,875.33 370.316,865.496 378.5,857.5 Z"/></g>
<g><path style="opacity:1" fill="#101111" d="M 582.5,830.5 C 577.457,850.847 571.791,871.347 565.5,892C 565.833,892.5 566.167,893 566.5,893.5C 577.539,888.043 578.205,889.21 568.5,897C 565.119,899.245 561.452,899.912 557.5,899C 556.427,897.687 555.76,896.187 555.5,894.5C 561.135,875.294 566.135,855.961 570.5,836.5C 568.5,836.5 566.5,836.5 564.5,836.5C 564.5,835.5 564.5,834.5 564.5,833.5C 570.791,833.505 576.791,832.505 582.5,830.5 Z"/></g>
<g><path style="opacity:1" fill="#0e1010" d="M 596.5,854.5 C 600.458,853.973 602.791,855.64 603.5,859.5C 600.635,868.928 597.468,878.262 594,887.5C 593.18,889.728 593.513,891.728 595,893.5C 600.047,890.12 604.047,885.786 607,880.5C 611.325,872.851 614.825,864.851 617.5,856.5C 620.784,855.343 624.118,855.176 627.5,856C 623.001,867.828 619.668,879.994 617.5,892.5C 618.552,892.649 619.552,892.483 620.5,892C 622.017,890.315 623.684,888.815 625.5,887.5C 625.833,888 626.167,888.5 626.5,889C 623.846,892.988 620.512,896.321 616.5,899C 613.331,899.978 610.497,899.478 608,897.5C 608.215,890.992 609.215,884.659 611,878.5C 607.111,885.11 602.611,891.277 597.5,897C 587.738,902.047 583.238,899.214 584,888.5C 587.035,880.395 589.868,872.228 592.5,864C 592.167,863.167 591.833,862.333 591.5,861.5C 589.063,862.803 586.896,864.47 585,866.5C 584.308,865.975 583.808,865.308 583.5,864.5C 587.282,860.377 591.615,857.043 596.5,854.5 Z"/></g>
<g><path style="opacity:1" fill="#f4f4f4" d="M 307.5,858.5 C 310.044,858.104 312.211,858.771 314,860.5C 316.004,873.509 312.837,885.009 304.5,895C 300.045,897.681 297.212,896.514 296,891.5C 295.178,878.795 299.012,867.795 307.5,858.5 Z"/></g>
<g><path style="opacity:1" fill="#0f1010" d="M 655.5,843.5 C 655.738,847.691 654.738,851.858 652.5,856C 655.167,856.333 657.833,856.667 660.5,857C 659.663,858.011 659.33,859.178 659.5,860.5C 656.753,860.187 654.086,860.52 651.5,861.5C 649.103,869.858 646.603,878.191 644,886.5C 643.186,888.902 643.353,891.235 644.5,893.5C 656.613,884.457 657.28,885.624 646.5,897C 642.32,899.941 638.153,900.108 634,897.5C 633.833,896 633.667,894.5 633.5,893C 636.09,882.141 638.756,871.308 641.5,860.5C 639.473,860.662 637.473,860.495 635.5,860C 636.337,858.989 636.67,857.822 636.5,856.5C 638.924,856.808 641.257,856.474 643.5,855.5C 644.308,853.075 645.308,850.742 646.5,848.5C 649.724,847.059 652.724,845.392 655.5,843.5 Z"/></g>
<g><path style="opacity:1" fill="#0e0f0f" d="M 534.5,854.5 C 545.539,854.371 551.205,859.871 551.5,871C 550.451,884.457 543.785,893.79 531.5,899C 524.265,900.927 518.765,898.76 515,892.5C 511.195,874.442 517.695,861.775 534.5,854.5 Z"/></g>
<g><path style="opacity:1" fill="#f6f6f6" d="M 534.5,858.5 C 537.547,857.855 539.713,858.855 541,861.5C 542.292,872.665 539.958,882.998 534,892.5C 531.209,896.554 527.875,897.22 524,894.5C 521.309,880.583 524.809,868.583 534.5,858.5 Z"/></g>
</svg>
